<?xml version="1.0" encoding="utf-8"?>
<!-- Generator: Adobe Illustrator 24.2.1, SVG Export Plug-In . SVG Version: 6.00 Build 0)  -->
<svg version="1.1" id="Camada_1" xmlns="http://www.w3.org/2000/svg" xmlns:xlink="http://www.w3.org/1999/xlink" x="0px" y="0px"
	 viewBox="0 0 1080 1080" style="enable-background:new 0 0 1080 1080;" xml:space="preserve">
<style type="text/css">
	.st0{fill:#FFFFFF;}
	.st1{fill:#FFAA00;}
</style>
<g>
	<path class="st0" d="M0,233.14h139.15l139.15,278.31l139.15-278.31h139.15L278.31,789.76L0,233.14z"/>
</g>
<g>
	<path class="st0" d="M801.69,233.92L1080,790.53H940.84L801.69,512.22L662.54,790.53H523.38L801.69,233.92z"/>
</g>
<polygon class="st0" points="476.59,790.53 337.39,790.53 608.36,233.75 747.56,233.75 "/>
<g>
	<polygon class="st1" points="638.59,275.7 671.99,275.7 629.31,364.78 595.9,364.78 	"/>
	<polygon class="st1" points="577.61,403.63 611.01,403.63 568.33,492.72 534.92,492.72 	"/>
	<polygon class="st1" points="516.63,531.56 550.03,531.56 507.35,620.65 473.94,620.65 	"/>
	<polygon class="st1" points="455.65,659.5 489.05,659.5 446.37,748.58 412.96,748.58 	"/>
</g>
</svg>
